<svg xmlns="http://www.w3.org/2000/svg" viewBox="0 0 1200 630" width="1200" height="630">
  <defs>
    <linearGradient id="bgGrad" x1="0%" y1="0%" x2="100%" y2="100%">
      <stop offset="0%" stop-color="#0f172a"/>
      <stop offset="100%" stop-color="#1e293b"/>
    </linearGradient>
    <linearGradient id="mtGrad" x1="0%" y1="100%" x2="100%" y2="0%">
      <stop offset="0%" stop-color="#0284c7"/>
      <stop offset="100%" stop-color="#38bdf8"/>
    </linearGradient>
  </defs>
  <rect width="1200" height="630" fill="url(#bgGrad)"/>
  <g transform="translate(500, 120)">
    <polygon points="100,0 185,140 15,140" fill="url(#mtGrad)"/>
    <polygon points="60,60 110,140 15,140" fill="#0ea5e9" opacity="0.6"/>
    <polygon points="130,50 185,140 80,140" fill="#0369a1" opacity="0.4"/>
    <circle cx="128" cy="44" r="24" fill="#f59e0b"/>
    <polygon points="128,28 133,39 144,39 135,46 138,56 128,49 118,56 121,46 112,39 123,39" fill="white"/>
  </g>
  <text x="600" y="340" text-anchor="middle" fill="white" font-family="system-ui,-apple-system,sans-serif" font-size="56" font-weight="800">Awesome CertSherpa</text>
  <text x="600" y="400" text-anchor="middle" fill="#94a3b8" font-family="system-ui,-apple-system,sans-serif" font-size="24" font-weight="400">Community-driven certification exam prep hub</text>
  <g transform="translate(300, 450)">
    <rect x="0" y="0" width="600" height="44" rx="22" fill="rgba(255,255,255,0.08)"/>
    <text x="300" y="29" text-anchor="middle" fill="#38bdf8" font-family="system-ui,-apple-system,sans-serif" font-size="16" font-weight="600" letter-spacing="2">240+ QUESTIONS  ·  215+ RESOURCES  ·  8 CERTIFICATIONS  ·  100% FREE</text>
  </g>
</svg>
